<svg width="600" height="222" viewBox="0 0 600 222" fill="none" xmlns="http://www.w3.org/2000/svg">
<path d="M19.9507 32.9365L19.951 86.5759C19.951 95.7564 22.3427 102.671 27.1262 107.319C32.0264 111.968 38.7933 114.292 47.427 114.292C56.1773 114.292 62.9442 111.968 67.7277 107.319C72.6279 102.671 75.078 95.7564 75.078 86.5759L75.0778 32.9365H95.0285L95.0287 86.2272C95.0287 96.105 92.8703 104.472 88.5535 111.328C84.2367 118.185 78.4615 123.298 71.2279 126.668C63.9943 130.038 56.0023 131.723 47.252 131.723C38.5017 131.723 30.5097 130.038 23.2761 126.668C16.1592 123.298 10.5006 118.185 6.30047 111.328C2.10032 104.472 0.00024076 96.105 0.00024076 86.2272L0 32.9365H19.9507Z" fill="#42424D"/>
<path d="M138.017 116.537H181.118V131.723H115.26V116.537L158.533 48.8278H115.26V32.9365H181.118V48.8278L138.017 116.537Z" fill="#42424D"/>
<path d="M196.732 82.0931C196.732 72.4477 198.715 63.9063 202.682 56.4689C206.765 49.0315 212.249 43.2791 219.133 39.2118C226.133 35.0283 233.833 32.9365 242.233 32.9365C249.817 32.9365 256.409 34.4472 262.009 37.4687C267.726 40.3739 272.276 44.0345 275.66 48.4505V34.5054H295.785V131.707H275.66V116.259C272.276 120.791 267.668 124.568 261.834 127.589C256.001 130.61 249.35 132.121 241.883 132.121C233.6 132.121 226.016 130.029 219.133 125.846C212.249 121.546 206.765 115.619 202.682 108.066C198.715 100.396 196.732 91.7384 196.732 82.0931ZM275.66 82.4417C275.66 75.8178 274.26 70.0654 271.46 65.1846C268.776 60.3038 265.218 56.5851 260.784 54.0285C256.351 51.4719 251.567 50.1936 246.434 50.1936C241.3 50.1936 236.517 51.4719 232.083 54.0285C227.65 56.4689 224.033 60.1295 221.233 65.0103C218.549 69.7749 217.207 75.4691 217.207 82.0931C217.207 88.717 218.549 94.5275 221.233 99.5245C224.033 104.521 227.65 108.356 232.083 111.029C236.633 113.586 241.417 114.864 246.434 114.864C251.567 114.864 256.351 113.586 260.784 111.029C265.218 108.473 268.776 104.754 271.46 99.8731C274.26 94.8761 275.66 89.0656 275.66 82.4417Z" fill="#42424D"/>
<path d="M341.939 16.4502V148.187H321.988V16.4502H341.939Z" fill="#42424D"/>
<path opacity="0.7" d="M516.702 165.067C501.557 165.067 487.868 161.683 475.635 154.914C463.402 147.951 453.791 138.281 446.801 125.904C439.811 113.333 436.316 98.8276 436.316 82.3885C436.316 66.1429 439.908 51.7346 447.092 39.1636C454.276 26.5925 464.082 16.9225 476.509 10.1535C488.936 3.3845 502.819 0 518.158 0C533.497 0 547.38 3.3845 559.807 10.1535C572.234 16.9225 582.039 26.5925 589.224 39.1636C596.408 51.7346 600 66.1429 600 82.3885C600 98.6342 596.311 113.042 588.932 125.613C581.554 138.185 571.457 147.951 558.642 154.914C546.021 161.683 532.041 165.067 516.702 165.067Z" fill="#77BDD9"/>
<path d="M455.865 80.1756C455.865 83.7781 455.632 87.0319 455.165 89.9372H381.487C382.071 97.607 384.929 103.766 390.063 108.414C395.196 113.063 401.497 115.387 408.963 115.387C419.697 115.387 427.281 110.913 431.714 101.965H453.24C450.323 110.797 445.015 118.06 437.315 123.754C429.731 129.332 420.281 132.121 408.963 132.121C399.746 132.121 391.463 130.087 384.113 126.02C376.879 121.837 371.162 116.026 366.962 108.589C362.878 101.035 360.837 92.3195 360.837 82.4417C360.837 72.5639 362.82 63.9063 366.787 56.4689C370.87 48.9153 376.529 43.1048 383.762 39.0375C391.113 34.9702 399.513 32.9365 408.963 32.9365C418.064 32.9365 426.172 34.9121 433.289 38.8632C440.406 42.8143 445.948 48.3924 449.915 55.5973C453.882 62.6861 455.865 70.8789 455.865 80.1756ZM435.039 73.9003C434.923 66.5791 432.298 60.7106 427.164 56.2946C422.031 51.8786 415.672 49.6707 408.088 49.6707C401.205 49.6707 395.313 51.8786 390.413 56.2946C385.513 60.5943 382.596 66.4629 381.662 73.9003H435.039Z" fill="#42424D"/>
<path d="M517.967 132.121C508.867 132.121 500.641 130.087 493.291 126.02C485.941 121.837 480.166 116.026 475.965 108.589C471.765 101.035 469.665 92.3195 469.665 82.4417C469.665 72.6801 471.824 64.0225 476.14 56.4689C480.457 48.9153 486.349 43.1048 493.816 39.0375C501.283 34.9702 509.625 32.9365 518.842 32.9365C528.059 32.9365 536.401 34.9702 543.868 39.0375C551.335 43.1048 557.227 48.9153 561.544 56.4689C565.86 64.0225 568.019 72.6801 568.019 82.4417C568.019 92.2033 565.802 100.861 561.369 108.414C556.935 115.968 550.868 121.837 543.168 126.02C535.584 130.087 527.184 132.121 517.967 132.121Z" fill="#42424D"/>
<path d="M546.117 104.173C542.139 104.173 538.543 103.288 535.329 101.518C532.116 99.6965 529.591 97.1674 527.754 93.93C525.918 90.6421 525 86.8483 525 82.5487C525 78.2996 525.944 74.5311 527.831 71.2432C529.718 67.9553 532.294 65.4261 535.559 63.6556C538.823 61.8852 542.47 61 546.5 61C550.53 61 554.177 61.8852 557.441 63.6556C560.706 65.4261 563.282 67.9553 565.169 71.2432C567.056 74.5311 568 78.2996 568 82.5487C568 86.7977 567.031 90.5662 565.093 93.8541C563.154 97.1421 560.502 99.6965 557.135 101.518C553.82 103.288 550.147 104.173 546.117 104.173Z" fill="white"/>
<path d="M252.496 208.364C250.104 208.364 247.955 207.948 246.048 207.116C244.176 206.249 242.703 205.071 241.628 203.58C240.553 202.055 239.999 200.304 239.964 198.328H245.008C245.181 200.027 245.875 201.465 247.088 202.644C248.336 203.788 250.139 204.36 252.496 204.36C254.749 204.36 256.517 203.805 257.8 202.696C259.117 201.552 259.776 200.096 259.776 198.328C259.776 196.941 259.395 195.815 258.632 194.948C257.869 194.081 256.916 193.423 255.772 192.972C254.628 192.521 253.085 192.036 251.144 191.516C248.752 190.892 246.828 190.268 245.372 189.644C243.951 189.02 242.72 188.049 241.68 186.732C240.675 185.38 240.172 183.577 240.172 181.324C240.172 179.348 240.675 177.597 241.68 176.072C242.685 174.547 244.089 173.368 245.892 172.536C247.729 171.704 249.827 171.288 252.184 171.288C255.581 171.288 258.355 172.137 260.504 173.836C262.688 175.535 263.919 177.788 264.196 180.596H258.996C258.823 179.209 258.095 177.996 256.812 176.956C255.529 175.881 253.831 175.344 251.716 175.344C249.74 175.344 248.128 175.864 246.88 176.904C245.632 177.909 245.008 179.331 245.008 181.168C245.008 182.485 245.372 183.56 246.1 184.392C246.863 185.224 247.781 185.865 248.856 186.316C249.965 186.732 251.508 187.217 253.484 187.772C255.876 188.431 257.8 189.089 259.256 189.748C260.712 190.372 261.96 191.36 263 192.712C264.04 194.029 264.56 195.832 264.56 198.12C264.56 199.888 264.092 201.552 263.156 203.112C262.22 204.672 260.833 205.937 258.996 206.908C257.159 207.879 254.992 208.364 252.496 208.364Z" fill="#42424D"/>
<path d="M296.068 179.504L278.908 221.416H274.02L279.636 207.688L268.144 179.504H273.396L282.34 202.592L291.18 179.504H296.068Z" fill="#42424D"/>
<path d="M310.912 208.468C308.728 208.468 306.77 208.104 305.036 207.376C303.303 206.613 301.934 205.573 300.928 204.256C299.923 202.904 299.368 201.361 299.264 199.628H304.152C304.291 201.049 304.95 202.211 306.128 203.112C307.342 204.013 308.919 204.464 310.86 204.464C312.663 204.464 314.084 204.065 315.124 203.268C316.164 202.471 316.684 201.465 316.684 200.252C316.684 199.004 316.13 198.085 315.02 197.496C313.911 196.872 312.195 196.265 309.872 195.676C307.758 195.121 306.024 194.567 304.672 194.012C303.355 193.423 302.211 192.573 301.24 191.464C300.304 190.32 299.836 188.829 299.836 186.992C299.836 185.536 300.27 184.201 301.136 182.988C302.003 181.775 303.234 180.821 304.828 180.128C306.423 179.4 308.243 179.036 310.288 179.036C313.443 179.036 315.991 179.833 317.932 181.428C319.874 183.023 320.914 185.207 321.052 187.98H316.32C316.216 186.489 315.61 185.293 314.5 184.392C313.426 183.491 311.97 183.04 310.132 183.04C308.434 183.04 307.082 183.404 306.076 184.132C305.071 184.86 304.568 185.813 304.568 186.992C304.568 187.928 304.863 188.708 305.452 189.332C306.076 189.921 306.839 190.407 307.74 190.788C308.676 191.135 309.959 191.533 311.588 191.984C313.634 192.539 315.298 193.093 316.58 193.648C317.863 194.168 318.955 194.965 319.856 196.04C320.792 197.115 321.278 198.519 321.312 200.252C321.312 201.812 320.879 203.216 320.012 204.464C319.146 205.712 317.915 206.7 316.32 207.428C314.76 208.121 312.958 208.468 310.912 208.468Z" fill="#42424D"/>
<path d="M333.764 183.404V200.2C333.764 201.587 334.059 202.575 334.648 203.164C335.238 203.719 336.26 203.996 337.716 203.996H341.2V208H336.936C334.302 208 332.326 207.393 331.008 206.18C329.691 204.967 329.032 202.973 329.032 200.2V183.404H325.34V179.504H329.032V172.328H333.764V179.504H341.2V183.404H333.764Z" fill="#42424D"/>
<path d="M372.934 192.66C372.934 193.561 372.882 194.515 372.778 195.52H350.002C350.175 198.328 351.128 200.529 352.862 202.124C354.63 203.684 356.762 204.464 359.258 204.464C361.303 204.464 363.002 203.996 364.354 203.06C365.74 202.089 366.711 200.807 367.266 199.212H372.362C371.599 201.951 370.074 204.187 367.786 205.92C365.498 207.619 362.655 208.468 359.258 208.468C356.554 208.468 354.127 207.861 351.978 206.648C349.863 205.435 348.199 203.719 346.986 201.5C345.772 199.247 345.166 196.647 345.166 193.7C345.166 190.753 345.755 188.171 346.934 185.952C348.112 183.733 349.759 182.035 351.874 180.856C354.023 179.643 356.484 179.036 359.258 179.036C361.962 179.036 364.354 179.625 366.434 180.804C368.514 181.983 370.108 183.612 371.218 185.692C372.362 187.737 372.934 190.06 372.934 192.66ZM368.046 191.672C368.046 189.869 367.647 188.327 366.85 187.044C366.052 185.727 364.96 184.739 363.574 184.08C362.222 183.387 360.714 183.04 359.05 183.04C356.658 183.04 354.612 183.803 352.914 185.328C351.25 186.853 350.296 188.968 350.054 191.672H368.046Z" fill="#42424D"/>
<path d="M413.448 178.984C415.666 178.984 417.642 179.452 419.376 180.388C421.109 181.289 422.478 182.659 423.484 184.496C424.489 186.333 424.992 188.569 424.992 191.204V208H420.312V191.88C420.312 189.037 419.601 186.871 418.18 185.38C416.793 183.855 414.904 183.092 412.512 183.092C410.05 183.092 408.092 183.889 406.636 185.484C405.18 187.044 404.452 189.315 404.452 192.296V208H399.772V191.88C399.772 189.037 399.061 186.871 397.64 185.38C396.253 183.855 394.364 183.092 391.972 183.092C389.51 183.092 387.552 183.889 386.096 185.484C384.64 187.044 383.912 189.315 383.912 192.296V208H379.18V179.504H383.912V183.612C384.848 182.121 386.096 180.977 387.656 180.18C389.25 179.383 391.001 178.984 392.908 178.984C395.3 178.984 397.414 179.521 399.252 180.596C401.089 181.671 402.458 183.248 403.36 185.328C404.157 183.317 405.474 181.757 407.312 180.648C409.149 179.539 411.194 178.984 413.448 178.984Z" fill="#42424D"/>
<path d="M442.842 208.468C440.658 208.468 438.699 208.104 436.966 207.376C435.233 206.613 433.863 205.573 432.858 204.256C431.853 202.904 431.298 201.361 431.194 199.628H436.082C436.221 201.049 436.879 202.211 438.058 203.112C439.271 204.013 440.849 204.464 442.79 204.464C444.593 204.464 446.014 204.065 447.054 203.268C448.094 202.471 448.614 201.465 448.614 200.252C448.614 199.004 448.059 198.085 446.95 197.496C445.841 196.872 444.125 196.265 441.802 195.676C439.687 195.121 437.954 194.567 436.602 194.012C435.285 193.423 434.141 192.573 433.17 191.464C432.234 190.32 431.766 188.829 431.766 186.992C431.766 185.536 432.199 184.201 433.066 182.988C433.933 181.775 435.163 180.821 436.758 180.128C438.353 179.4 440.173 179.036 442.218 179.036C445.373 179.036 447.921 179.833 449.862 181.428C451.803 183.023 452.843 185.207 452.982 187.98H448.25C448.146 186.489 447.539 185.293 446.43 184.392C445.355 183.491 443.899 183.04 442.062 183.04C440.363 183.04 439.011 183.404 438.006 184.132C437.001 184.86 436.498 185.813 436.498 186.992C436.498 187.928 436.793 188.708 437.382 189.332C438.006 189.921 438.769 190.407 439.67 190.788C440.606 191.135 441.889 191.533 443.518 191.984C445.563 192.539 447.227 193.093 448.51 193.648C449.793 194.168 450.885 194.965 451.786 196.04C452.722 197.115 453.207 198.519 453.242 200.252C453.242 201.812 452.809 203.216 451.942 204.464C451.075 205.712 449.845 206.7 448.25 207.428C446.69 208.121 444.887 208.468 442.842 208.468Z" fill="#42424D"/>
</svg>
