<svg width="150" height="42" viewBox="0 0 150 42" fill="none" xmlns="http://www.w3.org/2000/svg">
<path d="M4.98771 8.23608L4.98777 21.646C4.98777 23.9411 5.58572 25.6697 6.7816 26.8318C8.00665 27.9939 9.69839 28.575 11.8568 28.575C14.0444 28.575 15.7361 27.9939 16.932 26.8318C18.1571 25.6697 18.7696 23.9411 18.7696 21.646L18.7696 8.23608H23.7573L23.7573 21.5588C23.7573 24.0283 23.2177 26.1201 22.1385 27.8341C21.0593 29.5482 19.6155 30.8265 17.8071 31.6691C15.9987 32.5116 14.0007 32.9328 11.8131 32.9328C9.62547 32.9328 7.62747 32.5116 5.81906 31.6691C4.03982 30.8265 2.62517 29.5482 1.57513 27.8341C0.525083 26.1201 6.01902e-05 24.0283 6.01902e-05 21.5588L0 8.23608H4.98771Z" fill="white"/>
<path d="M34.5062 29.1362H45.2814V32.9328H28.8169V29.1362L39.6352 12.2089H28.8169V8.23608H45.2814V12.2089L34.5062 29.1362Z" fill="white"/>
<path d="M49.1826 20.5253C49.1826 18.1139 49.6785 15.9786 50.6702 14.1192C51.6911 12.2599 53.062 10.8218 54.7829 9.80491C56.5329 8.75903 58.458 8.23608 60.5581 8.23608C62.454 8.23608 64.102 8.61376 65.5021 9.36913C66.9313 10.0954 68.0689 11.0106 68.9147 12.1146V8.62829H73.9462V32.9288H68.9147V29.0667C68.0689 30.1997 66.9167 31.144 65.4583 31.8993C63.9999 32.6547 62.3374 33.0324 60.4706 33.0324C58.3997 33.0324 56.5038 32.5094 54.7829 31.4635C53.062 30.3886 51.6911 28.9069 50.6702 27.0185C49.6785 25.101 49.1826 22.9366 49.1826 20.5253ZM68.9147 20.6124C68.9147 18.9564 68.5647 17.5184 67.8647 16.2981C67.1938 15.0779 66.3042 14.1483 65.1958 13.5091C64.0874 12.87 62.8916 12.5504 61.6082 12.5504C60.3248 12.5504 59.1289 12.87 58.0205 13.5091C56.9121 14.1192 56.0079 15.0344 55.3079 16.2546C54.637 17.4457 54.3016 18.8693 54.3016 20.5253C54.3016 22.1813 54.637 23.6339 55.3079 24.8831C56.0079 26.1324 56.9121 27.0911 58.0205 27.7593C59.1581 28.3985 60.3539 28.7181 61.6082 28.7181C62.8916 28.7181 64.0874 28.3985 65.1958 27.7593C66.3042 27.1202 67.1938 26.1905 67.8647 24.9703C68.5647 23.721 68.9147 22.2684 68.9147 20.6124Z" fill="white"/>
<path d="M85.4842 4.11499V37.0492H80.4965V4.11499H85.4842Z" fill="white"/>
<path opacity="0.7" d="M129.175 41.267C125.389 41.267 121.967 40.4209 118.908 38.7286C115.85 36.988 113.447 34.5705 111.7 31.476C109.952 28.3333 109.079 24.707 109.079 20.5972C109.079 16.5358 109.977 12.9337 111.773 9.79094C113.569 6.64817 116.02 4.23065 119.127 2.53839C122.234 0.846128 125.704 0 129.539 0C133.374 0 136.845 0.846128 139.952 2.53839C143.058 4.23065 145.51 6.64817 147.306 9.79094C149.102 12.9337 150 16.5358 150 20.5972C150 24.6587 149.078 28.2608 147.233 31.4035C145.388 34.5463 142.864 36.988 139.66 38.7286C136.505 40.4209 133.01 41.267 129.175 41.267Z" fill="#77BDD9"/>
<path d="M113.969 20.0459C113.969 20.9465 113.91 21.76 113.794 22.4863H95.3741C95.52 24.4038 96.2346 25.9436 97.518 27.1057C98.8014 28.2678 100.376 28.8488 102.243 28.8488C104.927 28.8488 106.823 27.7303 107.931 25.4932H113.312C112.583 27.7012 111.256 29.517 109.331 30.9406C107.435 32.3351 105.072 33.0324 102.243 33.0324C99.9389 33.0324 97.868 32.5239 96.0304 31.5071C94.222 30.4612 92.7928 29.0086 91.7428 27.1492C90.7219 25.2608 90.2114 23.0819 90.2114 20.6124C90.2114 18.143 90.7073 15.9786 91.699 14.1192C92.7199 12.2308 94.1345 10.7782 95.9429 9.76134C97.7805 8.7445 99.8806 8.23608 102.243 8.23608C104.518 8.23608 106.545 8.72997 108.325 9.71776C110.104 10.7055 111.489 12.1001 112.481 13.9013C113.473 15.6735 113.969 17.7217 113.969 20.0459ZM108.762 18.4771C108.733 16.6468 108.077 15.1796 106.793 14.0756C105.51 12.9716 103.92 12.4196 102.024 12.4196C100.303 12.4196 98.8305 12.9716 97.6055 14.0756C96.3804 15.1506 95.6512 16.6177 95.4179 18.4771H108.762Z" fill="white"/>
<path d="M129.49 33.0324C127.215 33.0324 125.158 32.5239 123.321 31.5071C121.483 30.4612 120.039 29.0086 118.989 27.1492C117.939 25.2608 117.414 23.0819 117.414 20.6124C117.414 18.172 117.954 16.0076 119.033 14.1192C120.112 12.2308 121.585 10.7782 123.452 9.76134C125.319 8.7445 127.404 8.23608 129.709 8.23608C132.013 8.23608 134.098 8.7445 135.965 9.76134C137.832 10.7782 139.305 12.2308 140.384 14.1192C141.463 16.0076 142.003 18.172 142.003 20.6124C142.003 23.0528 141.449 25.2172 140.34 27.1057C139.232 28.9941 137.715 30.4612 135.79 31.5071C133.894 32.5239 131.794 33.0324 129.49 33.0324Z" fill="white"/>
<path d="M136.53 26.0443C135.535 26.0443 134.636 25.823 133.833 25.3804C133.03 24.9252 132.398 24.2929 131.939 23.4835C131.48 22.6615 131.251 21.7131 131.251 20.6382C131.251 19.5759 131.487 18.6338 131.958 17.8118C132.43 16.9898 133.074 16.3575 133.89 15.9149C134.707 15.4723 135.618 15.251 136.626 15.251C137.633 15.251 138.545 15.4723 139.361 15.9149C140.177 16.3575 140.821 16.9898 141.293 17.8118C141.765 18.6338 142.001 19.5759 142.001 20.6382C142.001 21.7004 141.758 22.6426 141.274 23.4646C140.789 24.2865 140.126 24.9252 139.285 25.3804C138.456 25.823 137.538 26.0443 136.53 26.0443Z" fill="#204F8C"/>
</svg>
